<svg width="127" height="17" viewBox="0 0 127 17" fill="none" xmlns="http://www.w3.org/2000/svg">
<path d="M2 9C3.10457 9 4 8.10457 4 7C4 5.89543 3.10457 5 2 5C0.895431 5 0 5.89543 0 7C0 8.10457 0.895431 9 2 9Z" fill="white"/>
<path d="M2 13C3.10457 13 4 12.1046 4 11C4 9.89543 3.10457 9 2 9C0.895431 9 0 9.89543 0 11C0 12.1046 0.895431 13 2 13Z" fill="#94A3B8"/>
<path d="M11.1768 14L8.26349 3.81818H10.6151L12.3004 10.8928H12.3849L14.2443 3.81818H16.2578L18.1122 10.9077H18.2017L19.8871 3.81818H22.2386L19.3253 14H17.2273L15.2884 7.34304H15.2088L13.2749 14H11.1768ZM23.3908 14V3.81818H30.2516V5.59304H25.5435V8.01918H29.8986V9.79403H25.5435V12.2251H30.2715V14H23.3908ZM31.9631 14V3.81818H36.0398C36.7888 3.81818 37.4136 3.92921 37.9141 4.15128C38.4145 4.37334 38.7907 4.68158 39.0426 5.07599C39.2945 5.46709 39.4205 5.91785 39.4205 6.42827C39.4205 6.82599 39.3409 7.17566 39.1818 7.47727C39.0227 7.77557 38.804 8.02083 38.5256 8.21307C38.2505 8.40199 37.9356 8.53622 37.581 8.61577V8.7152C37.9688 8.73177 38.3317 8.84115 38.6697 9.04332C39.0111 9.2455 39.2879 9.52888 39.5 9.89347C39.7121 10.2547 39.8182 10.6856 39.8182 11.1861C39.8182 11.7263 39.6839 12.2086 39.4155 12.6328C39.1503 13.0537 38.7576 13.3868 38.2372 13.6321C37.7169 13.8774 37.0755 14 36.3132 14H31.9631ZM34.1158 12.2401H35.8707C36.4706 12.2401 36.9081 12.1257 37.1832 11.897C37.4583 11.665 37.5959 11.3568 37.5959 10.9723C37.5959 10.6906 37.5279 10.442 37.392 10.2266C37.2562 10.0111 37.0623 9.84209 36.8104 9.71946C36.5618 9.59683 36.2652 9.53551 35.9205 9.53551H34.1158V12.2401ZM34.1158 8.07884H35.7116C36.0066 8.07884 36.2685 8.02746 36.4972 7.92472C36.7292 7.81866 36.9115 7.66951 37.044 7.47727C37.1799 7.28504 37.2479 7.05469 37.2479 6.78622C37.2479 6.41832 37.117 6.12169 36.8551 5.89631C36.5966 5.67093 36.2287 5.55824 35.7514 5.55824H34.1158V8.07884ZM50.2026 7.38281H48.025C47.9853 7.10109 47.9041 6.85085 47.7814 6.6321C47.6588 6.41004 47.5014 6.22112 47.3091 6.06534C47.1169 5.90956 46.8948 5.79025 46.6429 5.70739C46.3944 5.62453 46.1242 5.5831 45.8326 5.5831C45.3056 5.5831 44.8465 5.71402 44.4554 5.97585C44.0643 6.23437 43.7611 6.61222 43.5456 7.10938C43.3302 7.60322 43.2225 8.20312 43.2225 8.90909C43.2225 9.63494 43.3302 10.2448 43.5456 10.7386C43.7644 11.2325 44.0693 11.6054 44.4604 11.8572C44.8515 12.1091 45.3039 12.2351 45.8176 12.2351C46.106 12.2351 46.3728 12.197 46.6181 12.1207C46.8667 12.0445 47.0871 11.9335 47.2793 11.7876C47.4715 11.6385 47.6306 11.4579 47.7566 11.2457C47.8858 11.0336 47.9753 10.7917 48.025 10.5199L50.2026 10.5298C50.1462 10.9972 50.0054 11.4479 49.78 11.8821C49.5579 12.313 49.258 12.6991 48.8801 13.0405C48.5056 13.3786 48.0582 13.647 47.5378 13.8459C47.0208 14.0414 46.4358 14.1392 45.7828 14.1392C44.8747 14.1392 44.0627 13.9337 43.3468 13.5227C42.6342 13.1117 42.0707 12.5168 41.6564 11.7379C41.2454 10.959 41.04 10.0161 41.04 8.90909C41.04 7.79877 41.2488 6.85417 41.6664 6.07528C42.084 5.2964 42.6507 4.70312 43.3667 4.29545C44.0826 3.88447 44.888 3.67898 45.7828 3.67898C46.3728 3.67898 46.9197 3.76184 47.4235 3.92756C47.9306 4.09328 48.3797 4.33523 48.7708 4.65341C49.1619 4.96828 49.4801 5.3544 49.7253 5.81179C49.9739 6.26918 50.133 6.79285 50.2026 7.38281ZM51.7463 14V3.81818H53.899V8.01918H58.269V3.81818H60.4167V14H58.269V9.79403H53.899V14H51.7463ZM63.9466 14H61.6397L65.1547 3.81818H67.9288L71.4387 14H69.1319L66.5815 6.14489H66.502L63.9466 14ZM63.8024 9.99787H69.2512V11.6783H63.8024V9.99787ZM74.8169 3.81818V14H72.6642V3.81818H74.8169ZM85.1044 3.81818V14H83.245L78.8153 7.59162H78.7408V14H76.5881V3.81818H78.4773L82.8722 10.2216H82.9616V3.81818H85.1044Z" fill="white"/>
<path d="M91.233 14V3.81818H92.4659V12.9062H97.1989V14H91.233ZM100.168 14H98.8755L102.614 3.81818H103.887L107.626 14H106.333L103.29 5.42898H103.211L100.168 14ZM100.645 10.0227H105.856V11.1165H100.645V10.0227ZM109.211 14V3.81818H112.771C113.48 3.81818 114.065 3.94081 114.526 4.18608C114.987 4.42803 115.33 4.7545 115.555 5.16548C115.781 5.57315 115.893 6.02557 115.893 6.52273C115.893 6.96023 115.815 7.3215 115.66 7.60653C115.507 7.89157 115.305 8.11695 115.053 8.28267C114.805 8.44839 114.534 8.57102 114.243 8.65057V8.75C114.554 8.76989 114.867 8.87926 115.182 9.07812C115.497 9.27699 115.761 9.56203 115.973 9.93324C116.185 10.3045 116.291 10.7585 116.291 11.2955C116.291 11.8059 116.175 12.2649 115.943 12.6726C115.711 13.0803 115.345 13.4034 114.844 13.642C114.344 13.8807 113.693 14 112.89 14H109.211ZM110.444 12.9062H112.89C113.696 12.9062 114.268 12.7505 114.606 12.4389C114.947 12.1241 115.118 11.7429 115.118 11.2955C115.118 10.9508 115.03 10.6326 114.854 10.3409C114.679 10.0459 114.428 9.81061 114.104 9.63494C113.779 9.45597 113.394 9.36648 112.95 9.36648H110.444V12.9062ZM110.444 8.29261H112.731C113.103 8.29261 113.437 8.2197 113.736 8.07386C114.037 7.92803 114.276 7.72254 114.452 7.45739C114.631 7.19223 114.72 6.88068 114.72 6.52273C114.72 6.07528 114.564 5.69579 114.253 5.38423C113.941 5.06937 113.447 4.91193 112.771 4.91193H110.444V8.29261ZM123.885 6.36364C123.825 5.85985 123.584 5.46875 123.159 5.19034C122.735 4.91193 122.215 4.77273 121.598 4.77273C121.147 4.77273 120.753 4.84564 120.415 4.99148C120.08 5.13731 119.818 5.33783 119.629 5.59304C119.444 5.84825 119.351 6.13826 119.351 6.46307C119.351 6.73485 119.416 6.96851 119.545 7.16406C119.677 7.3563 119.847 7.51705 120.052 7.64631C120.258 7.77225 120.473 7.87666 120.698 7.95952C120.924 8.03906 121.131 8.10369 121.32 8.15341L122.354 8.43182C122.619 8.50142 122.914 8.59754 123.239 8.72017C123.567 8.8428 123.88 9.01018 124.178 9.2223C124.48 9.43111 124.729 9.69957 124.924 10.0277C125.12 10.3558 125.218 10.7585 125.218 11.2358C125.218 11.786 125.073 12.2831 124.785 12.7273C124.5 13.1714 124.082 13.5244 123.532 13.7862C122.985 14.0481 122.321 14.179 121.539 14.179C120.809 14.179 120.178 14.0613 119.644 13.826C119.114 13.5907 118.696 13.2625 118.392 12.8416C118.09 12.4207 117.919 11.9318 117.879 11.375H119.152C119.185 11.7595 119.315 12.0777 119.54 12.3295C119.769 12.5781 120.057 12.7637 120.405 12.8864C120.756 13.0057 121.134 13.0653 121.539 13.0653C122.009 13.0653 122.432 12.9891 122.806 12.8366C123.181 12.6809 123.477 12.4654 123.696 12.1903C123.915 11.9119 124.024 11.5871 124.024 11.2159C124.024 10.8778 123.93 10.6027 123.741 10.3906C123.552 10.1785 123.303 10.0062 122.995 9.87358C122.687 9.741 122.354 9.625 121.996 9.52557L120.743 9.16761C119.948 8.93892 119.318 8.61245 118.854 8.18821C118.39 7.76397 118.158 7.20881 118.158 6.52273C118.158 5.95265 118.312 5.45549 118.62 5.03125C118.932 4.60369 119.349 4.27225 119.873 4.03693C120.4 3.7983 120.988 3.67898 121.638 3.67898C122.294 3.67898 122.878 3.79664 123.388 4.03196C123.898 4.26397 124.303 4.58215 124.601 4.98651C124.903 5.39086 125.062 5.8499 125.078 6.36364H123.885Z" fill="#94A3B8"/>
</svg>
